<?xml version="1.0" encoding="utf-8"?>
<!-- Generator: Adobe Illustrator 24.1.0, SVG Export Plug-In . SVG Version: 6.00 Build 0)  -->
<svg version="1.1" id="Layer_1" xmlns="http://www.w3.org/2000/svg" xmlns:xlink="http://www.w3.org/1999/xlink" x="0px" y="0px"
	 viewBox="0 0 418.8 418.8" style="enable-background:new 0 0 418.8 418.8;" xml:space="preserve">
<style type="text/css">
	.st0{fill:#231815;}
</style>
<g>
	<g>
		<polygon class="st0" points="166.2,158.6 156.6,158.6 156.6,121.1 142.8,121.1 142.8,113 179.9,113 179.9,121.1 166.2,121.1 		"/>
		<polygon class="st0" points="192.9,138.2 192.9,158.6 183.3,158.6 183.3,113 192.9,113 192.9,130.3 210.7,130.3 210.7,113 
			220.2,113 220.2,158.6 210.7,158.6 210.7,138.2 		"/>
		<polygon class="st0" points="257.1,121.1 233.1,121.1 233.1,130.7 254.3,130.7 254.3,138.7 233.1,138.7 233.1,150.6 257.1,150.6 
			257.1,158.6 224.3,158.6 224.3,113 257.1,113 		"/>
		<polygon class="st0" points="78.7,163.3 87.6,163.3 87.6,209 78.1,209 59.4,176.4 59.3,176.4 59.3,209 50.4,209 50.4,163.3 
			60.4,163.3 78.5,195.1 78.7,195.1 		"/>
		<path class="st0" d="M113.8,162.1c6,0,21.9,2.6,21.9,24c0,21.4-15.9,24-21.9,24c-6,0-21.9-2.6-21.9-24
			C91.9,164.7,107.8,162.1,113.8,162.1 M113.8,202.1c5.2,0,12.4-3.2,12.4-16c0-12.8-7.2-16-12.4-16c-5.1,0-12.4,3.2-12.4,16
			C101.5,198.9,108.7,202.1,113.8,202.1"/>
		<polygon class="st0" points="203,209 193.5,209 193.5,171.4 179.7,171.4 179.7,163.3 216.8,163.3 216.8,171.4 203,171.4 		"/>
		<polygon class="st0" points="229.8,188.5 229.8,209 220.2,209 220.2,163.3 229.8,163.3 229.8,180.6 247.6,180.6 247.6,163.3 
			257.1,163.3 257.1,209 247.6,209 247.6,188.5 		"/>
		<path class="st0" d="M139.7,163.3h23.1c12.1,0,14.4,9,14.4,12.9c0,5-2.6,9.3-7.1,10.9c3.8,1.6,5.8,3,5.8,11.6c0,6.7,0,8.3,2,9.1
			v1.2h-10.6c-0.6-2.1-1-4.5-1-9.2c0-6.2-0.4-8.6-7.4-8.6h-9.8V209h-9.4V163.3z M160.3,183.4c5,0,7.4-1.7,7.4-6.2c0-2.4-1.1-6-6.7-6
			h-11.9v12.2H160.3z"/>
		<polygon class="st0" points="121.1,259.3 111.6,259.3 111.6,213.6 144,213.6 144,221.7 121.1,221.7 121.1,232 141.2,232 
			141.2,240.1 121.1,240.1 		"/>
		<path class="st0" d="M148.3,259.3h-10l16.3-45.6h11l16.1,45.6h-10.4l-2.9-9.4h-16.8L148.3,259.3z M154.1,242h11.6l-5.7-18h-0.1
			L154.1,242z"/>
		<path class="st0" d="M210.9,228.7c-0.7-2.7-2.2-7.9-10.1-7.9c-4.6,0-11.3,3-11.3,15.9c0,8.2,3.3,15.6,11.3,15.6
			c5.3,0,9-3,10.1-8.6h9.5c-1.9,9.9-8.4,16.8-19.8,16.8c-12.1,0-20.9-8.2-20.9-24c0-15.9,9.2-24.1,21-24.1
			c13.6,0,19.2,9.4,19.7,16.1H210.9z"/>
		<polygon class="st0" points="257.1,221.7 233.1,221.7 233.1,231.3 254.3,231.3 254.3,239.4 233.1,239.4 233.1,251.2 257.1,251.2 
			257.1,259.3 224.3,259.3 224.3,213.6 257.1,213.6 		"/>
		<path class="st0" d="M98.6,246.7c3.8,0,7,3,7,7c0,4-3.2,7-7,7c-3.8,0-7.1-3-7.1-7C91.5,249.7,94.8,246.7,98.6,246.7 M98.6,259.7
			c3.2,0,5.8-2.6,5.8-6c0-3.4-2.5-5.9-5.8-5.9c-3.3,0-5.8,2.6-5.8,5.9C92.8,257.1,95.3,259.7,98.6,259.7 M95.9,249.6H99
			c2,0,2.9,0.8,2.9,2.3c0,1.5-0.9,2.1-2.2,2.2l2.3,3.6h-1.4l-2.2-3.5h-1.3v3.5h-1.3V249.6z M97.1,253.2h1.3c1.1,0,2.2-0.1,2.2-1.3
			c0-1.1-0.9-1.3-1.8-1.3h-1.7V253.2z"/>
		<path class="st0" d="M372,218.8c0-58.5-47.3-105.8-105.8-105.8h-2.1v45.6h2.1c34,0,61.6,27.3,62,61.2h0v39.4H372V218.8z"/>
		<path class="st0" d="M266.2,213.6h-2.1v45.6H286v-25.8C286,222.5,277.2,213.6,266.2,213.6"/>
		<path class="st0" d="M323.5,220.4c-0.1-31.5-25.7-57-57.3-57.1h-2.2v0v9.1V209h2.1c13.5,0,24.5,10.9,24.5,24.5v25.8h32.8V220.4z"
			/>
	</g>
</g>
</svg>
